<svg width="32" height="32" viewBox="0 0 32 32" fill="none" xmlns="http://www.w3.org/2000/svg">
<path d="M8.82592 0C9.67697 0.184454 10.4651 0.723843 10.8103 1.5455C11.1331 2.31406 11.0032 3.22096 11.0744 4.03144C11.1597 4.99703 11.3372 5.98358 11.5538 6.92681C11.8626 8.27109 12.4775 9.16681 11.6264 10.5209L8.73089 14.3162C8.69735 14.3595 8.70154 14.4028 8.70853 14.4531C8.73229 14.6194 9.46316 15.8197 9.61129 16.0573C11.2896 18.757 13.3774 20.7944 16.0759 22.4629C16.3149 22.611 17.3756 23.279 17.5545 23.3041C17.6048 23.3111 17.6481 23.3167 17.6914 23.2817L21.4841 20.385C22.8299 19.5535 23.9688 20.2257 25.3146 20.5317C26.8378 20.8783 28.0773 20.8657 29.5936 21.0012C30.8457 21.113 31.7792 22.0325 32 23.2496V29.7502C31.7764 30.938 30.9393 31.7764 29.7515 32H28.1276C27.6232 31.8826 27.0488 31.9231 26.5359 31.8742C13.1175 30.611 2.02867 19.8763 0.277655 6.52297L0.0191248 3.87493C0.0638435 3.3593 -0.040966 2.75284 0.0191248 2.24978C0.149089 1.16402 1.18041 0.129956 2.26764 0H8.82592Z" fill="#11151C"/>
</svg>
